<svg width="104" height="24" viewBox="0 0 104 24" fill="none" xmlns="http://www.w3.org/2000/svg">
<g clip-path="url(#clip0_109_74)">
<path fill-rule="evenodd" clip-rule="evenodd" d="M2 12C2 7.80863 2 5.71294 3.05041 4.26718C3.38964 3.80026 3.80026 3.38964 4.26718 3.05041C5.71294 2 7.80863 2 12 2C16.1914 2 18.2871 2 19.7328 3.05041C20.1997 3.38964 20.6104 3.80026 20.9496 4.26718C22 5.71294 22 7.80863 22 12C22 16.1914 22 18.2871 20.9496 19.7328C20.6104 20.1997 20.1997 20.6104 19.7328 20.9496C18.2871 22 16.1914 22 12 22C7.80863 22 5.71294 22 4.26718 20.9496C3.80026 20.6104 3.38964 20.1997 3.05041 19.7328C2 18.2871 2 16.1914 2 12ZM12 6.70588C9.07632 6.70588 6.70588 9.07632 6.70588 12C6.70588 14.9237 9.07632 17.2941 12 17.2941C14.9237 17.2941 17.2941 14.9237 17.2941 12C17.2941 9.07632 14.9237 6.70588 12 6.70588ZM12 15.3088C10.1762 15.3088 8.69118 13.8238 8.69118 12C8.69118 10.1749 10.1762 8.69118 12 8.69118C13.8238 8.69118 15.3088 10.1749 15.3088 12C15.3088 13.8238 13.8238 15.3088 12 15.3088ZM18.3966 6.30883C18.3966 6.69844 18.0808 7.01427 17.6912 7.01427C17.3016 7.01427 16.9857 6.69844 16.9857 6.30883C16.9857 5.91923 17.3016 5.60339 17.6912 5.60339C18.0808 5.60339 18.3966 5.91923 18.3966 6.30883Z" fill="white"/>
<path fill-rule="evenodd" clip-rule="evenodd" d="M61.3903 4.11407C62.4182 4.39093 63.2288 5.20135 63.5055 6.22948C64.0197 8.1074 63.9999 12.0218 63.9999 12.0218C63.9999 12.0218 63.9999 15.9163 63.5057 17.7944C63.2288 18.8223 62.4184 19.6329 61.3903 19.9096C59.5122 20.404 52 20.404 52 20.404C52 20.404 44.5073 20.404 42.6096 19.89C41.5815 19.6131 40.7711 18.8025 40.4942 17.7746C40 15.9163 40 12.002 40 12.002C40 12.002 40 8.1074 40.4942 6.22948C40.7709 5.20153 41.6013 4.37115 42.6094 4.09448C44.4875 3.6001 51.9998 3.6001 51.9998 3.6001C51.9998 3.6001 59.5122 3.6001 61.3903 4.11407ZM55.8549 12.0021L49.6079 15.6001V8.40404L55.8549 12.0021Z" fill="white"/>
<path d="M97.5629 1.00458L94.7857 1C91.6655 1 89.6491 3.12509 89.6491 6.41423V8.91055H86.8567C86.6154 8.91055 86.42 9.1115 86.42 9.35937V12.9763C86.42 13.2241 86.6156 13.4249 86.8567 13.4249H89.6491V22.5514C89.6491 22.7993 89.8445 23 90.0858 23H93.7291C93.9704 23 94.1658 22.799 94.1658 22.5514V13.4249H97.4308C97.6721 13.4249 97.8675 13.2241 97.8675 12.9763L97.8688 9.35937C97.8688 9.24036 97.8227 9.12638 97.741 9.04215C97.6592 8.95793 97.5478 8.91055 97.4319 8.91055H94.1658V6.79439C94.1658 5.77727 94.4018 5.26094 95.6916 5.26094L97.5625 5.26025C97.8036 5.26025 97.999 5.0593 97.999 4.81166V1.45317C97.999 1.20576 97.8038 1.00504 97.5629 1.00458Z" fill="white"/>
</g>
<defs>
<clipPath id="clip0_109_74">
<rect width="104" height="24" fill="white"/>
</clipPath>
</defs>
</svg>
